<svg width="50" height="50" viewBox="0 0 50 50" fill="none" xmlns="http://www.w3.org/2000/svg">
<circle opacity="0.3" cx="25" cy="25" r="24.5" stroke="#282B22"/>
<path d="M25.26 26.14C25.26 27.3133 25.0333 28.36 24.58 29.28C24.14 30.1867 23.5333 30.9 22.76 31.42C21.9867 31.94 21.1133 32.2 20.14 32.2C19.1533 32.2 18.2733 31.94 17.5 31.42C16.74 30.9 16.1333 30.1867 15.68 29.28C15.24 28.36 15.02 27.3133 15.02 26.14C15.02 24.9667 15.24 23.9267 15.68 23.02C16.1333 22.1 16.74 21.38 17.5 20.86C18.2733 20.3267 19.1533 20.06 20.14 20.06C21.1133 20.06 21.9867 20.3267 22.76 20.86C23.5333 21.38 24.14 22.1 24.58 23.02C25.0333 23.9267 25.26 24.9667 25.26 26.14ZM23.02 26.14C23.02 25.34 22.8933 24.64 22.64 24.04C22.4 23.4267 22.06 22.9533 21.62 22.62C21.1933 22.2733 20.7 22.1 20.14 22.1C19.5667 22.1 19.06 22.2733 18.62 22.62C18.18 22.9533 17.8333 23.4267 17.58 24.04C17.34 24.64 17.22 25.34 17.22 26.14C17.22 27.34 17.4867 28.3133 18.02 29.06C18.5667 29.7933 19.2733 30.16 20.14 30.16C20.7 30.16 21.1933 29.9933 21.62 29.66C22.06 29.3267 22.4 28.86 22.64 28.26C22.8933 27.6467 23.02 26.94 23.02 26.14ZM35.2252 30.02V32H27.5852V30.02H30.4252V23.04C30.2785 23.24 30.0118 23.46 29.6252 23.7C29.2385 23.94 28.8185 24.14 28.3652 24.3C27.9252 24.46 27.5318 24.54 27.1852 24.54V22.48C27.4518 22.48 27.7585 22.4 28.1052 22.24C28.4518 22.08 28.7918 21.8933 29.1252 21.68C29.4718 21.4533 29.7652 21.24 30.0052 21.04C30.2452 20.8267 30.3852 20.6733 30.4252 20.58H32.6852V30.02H35.2252Z" fill="#3D4A39"/>
</svg>
