<svg width="114" height="23" viewBox="0 0 114 23" fill="none" xmlns="http://www.w3.org/2000/svg">
<path d="M29.8209 17V5.64H38.5889V17H37.1489V6.92H31.2609V17H29.8209ZM44.7293 17.16C43.8973 17.16 43.1613 16.9627 42.5213 16.568C41.892 16.1627 41.4013 15.6347 41.0493 14.984C40.6973 14.3227 40.5213 13.608 40.5213 12.84C40.5213 12.0613 40.6973 11.3467 41.0493 10.696C41.412 10.0347 41.908 9.50667 42.5373 9.112C43.1773 8.70667 43.908 8.504 44.7293 8.504C45.5613 8.504 46.292 8.70667 46.9213 9.112C47.5613 9.50667 48.0573 10.0347 48.4093 10.696C48.772 11.3467 48.9533 12.0613 48.9533 12.84C48.9533 13.608 48.772 14.3227 48.4093 14.984C48.0573 15.6347 47.5666 16.1627 46.9373 16.568C46.308 16.9627 45.572 17.16 44.7293 17.16ZM41.9613 12.856C41.9613 13.432 42.084 13.9547 42.3293 14.424C42.5853 14.8933 42.9213 15.2667 43.3373 15.544C43.7533 15.8107 44.2173 15.944 44.7293 15.944C45.2413 15.944 45.7053 15.8053 46.1213 15.528C46.548 15.2507 46.884 14.8773 47.1293 14.408C47.3853 13.928 47.5133 13.4 47.5133 12.824C47.5133 12.248 47.3853 11.7253 47.1293 11.256C46.884 10.7867 46.548 10.4133 46.1213 10.136C45.7053 9.85867 45.2413 9.72 44.7293 9.72C44.2173 9.72 43.7533 9.864 43.3373 10.152C42.9213 10.4293 42.5853 10.8027 42.3293 11.272C42.084 11.7413 41.9613 12.2693 41.9613 12.856ZM49.7314 18.968V15.752H49.9074C50.2168 15.752 50.4941 15.624 50.7394 15.368C50.9954 15.1013 51.2034 14.632 51.3634 13.96C51.5234 13.2773 51.6194 12.312 51.6514 11.064L51.7314 8.648H57.4114V15.752H58.5474V18.968H57.2994V17H50.9794V18.968H49.7314ZM51.8754 15.752H56.0034V9.896H52.9794L52.9314 11.192C52.8888 12.5573 52.7768 13.592 52.5954 14.296C52.4248 15 52.1848 15.4853 51.8754 15.752ZM59.4566 14.584C59.4566 14.0507 59.6059 13.592 59.9046 13.208C60.2139 12.8133 60.6352 12.5093 61.1686 12.296C61.7019 12.0827 62.3206 11.976 63.0246 11.976C63.3979 11.976 63.7926 12.008 64.2086 12.072C64.6246 12.1253 64.9926 12.2107 65.3126 12.328V11.72C65.3126 11.08 65.1206 10.5787 64.7366 10.216C64.3526 9.84267 63.8086 9.656 63.1046 9.656C62.6459 9.656 62.2032 9.74133 61.7766 9.912C61.3606 10.072 60.9179 10.3067 60.4486 10.616L59.9366 9.624C60.4806 9.25067 61.0246 8.97333 61.5686 8.792C62.1126 8.6 62.6779 8.504 63.2646 8.504C64.3312 8.504 65.1739 8.80267 65.7926 9.4C66.4112 9.98667 66.7206 10.808 66.7206 11.864V15.4C66.7206 15.7307 66.8699 15.9013 67.1686 15.912V17C67.0299 17.0213 66.9072 17.0373 66.8006 17.048C66.7046 17.0587 66.6246 17.064 66.5606 17.064C66.2299 17.064 65.9792 16.9733 65.8086 16.792C65.6486 16.6107 65.5579 16.4187 65.5366 16.216L65.5046 15.688C65.1419 16.1573 64.6672 16.52 64.0806 16.776C63.4939 17.032 62.9126 17.16 62.3366 17.16C61.7819 17.16 61.2859 17.048 60.8486 16.824C60.4112 16.5893 60.0699 16.28 59.8246 15.896C59.5792 15.5013 59.4566 15.064 59.4566 14.584ZM64.8966 15.176C65.0246 15.0267 65.1259 14.8773 65.2006 14.728C65.2752 14.568 65.3126 14.4347 65.3126 14.328V13.288C64.6299 13.0213 63.9259 12.888 63.2006 12.888C62.4859 12.888 61.9046 13.032 61.4566 13.32C61.0192 13.5973 60.8006 13.9813 60.8006 14.472C60.8006 14.7387 60.8699 15 61.0086 15.256C61.1579 15.5013 61.3712 15.704 61.6486 15.864C61.9366 16.024 62.2886 16.104 62.7046 16.104C63.1419 16.104 63.5579 16.0187 63.9526 15.848C64.3472 15.6667 64.6619 15.4427 64.8966 15.176ZM73.4679 17.16C72.7853 17.16 72.1773 16.9893 71.6439 16.648C71.1106 16.3067 70.6893 15.8747 70.3799 15.352V20.408H68.9719V8.648H70.2199V10.216C70.5506 9.704 70.9826 9.29333 71.5159 8.984C72.0493 8.664 72.6306 8.504 73.2599 8.504C73.8359 8.504 74.3639 8.62133 74.8439 8.856C75.3239 9.09067 75.7399 9.41067 76.0919 9.816C76.4439 10.2213 76.7159 10.6853 76.9079 11.208C77.1106 11.72 77.2119 12.2587 77.2119 12.824C77.2119 13.6133 77.0519 14.3387 76.7319 15C76.4226 15.6613 75.9853 16.1893 75.4199 16.584C74.8546 16.968 74.2039 17.16 73.4679 17.16ZM73.0359 15.944C73.5906 15.944 74.0706 15.7947 74.4759 15.496C74.8813 15.1973 75.1959 14.808 75.4199 14.328C75.6546 13.848 75.7719 13.3467 75.7719 12.824C75.7719 12.2587 75.6439 11.7413 75.3879 11.272C75.1426 10.8027 74.8013 10.4293 74.3639 10.152C73.9373 9.864 73.4519 9.72 72.9079 9.72C72.5773 9.72 72.2253 9.80533 71.8519 9.976C71.4893 10.1467 71.1693 10.376 70.8919 10.664C70.6253 10.9413 70.4546 11.2507 70.3799 11.592V13.976C70.6146 14.5307 70.9719 15 71.4519 15.384C71.9426 15.7573 72.4706 15.944 73.0359 15.944ZM79.6994 20.504C79.3474 20.504 78.9741 20.3973 78.5794 20.184L79.0594 19.224C79.2408 19.3307 79.4221 19.384 79.6034 19.384C80.1261 19.384 80.5848 18.8987 80.9794 17.928L81.3794 16.92L77.7154 8.648H79.2034L82.0194 15.576L84.5634 8.648H85.9554L82.0514 18.36C81.7634 19.0747 81.4168 19.608 81.0114 19.96C80.6061 20.3227 80.1688 20.504 79.6994 20.504ZM87.3622 17V8.648H88.7702V12.104H93.1222V8.648H94.5302V17H93.1222V13.352H88.7702V17H87.3622ZM100.448 17.16C99.6161 17.16 98.8801 16.9627 98.2401 16.568C97.6107 16.1627 97.1201 15.6347 96.7681 14.984C96.4161 14.3227 96.2401 13.608 96.2401 12.84C96.2401 12.0613 96.4161 11.3467 96.7681 10.696C97.1307 10.0347 97.6267 9.50667 98.2561 9.112C98.8961 8.70667 99.6267 8.504 100.448 8.504C101.28 8.504 102.011 8.70667 102.64 9.112C103.28 9.50667 103.776 10.0347 104.128 10.696C104.491 11.3467 104.672 12.0613 104.672 12.84C104.672 13.608 104.491 14.3227 104.128 14.984C103.776 15.6347 103.285 16.1627 102.656 16.568C102.027 16.9627 101.291 17.16 100.448 17.16ZM97.6801 12.856C97.6801 13.432 97.8027 13.9547 98.0481 14.424C98.3041 14.8933 98.6401 15.2667 99.0561 15.544C99.4721 15.8107 99.9361 15.944 100.448 15.944C100.96 15.944 101.424 15.8053 101.84 15.528C102.267 15.2507 102.603 14.8773 102.848 14.408C103.104 13.928 103.232 13.4 103.232 12.824C103.232 12.248 103.104 11.7253 102.848 11.256C102.603 10.7867 102.267 10.4133 101.84 10.136C101.424 9.85867 100.96 9.72 100.448 9.72C99.9361 9.72 99.4721 9.864 99.0561 10.152C98.6401 10.4293 98.3041 10.8027 98.0481 11.272C97.8027 11.7413 97.6801 12.2693 97.6801 12.856ZM106.362 17V8.648H107.77V12.088H108.698L111.322 8.648H112.922L109.802 12.696L113.29 17H111.658L108.698 13.384H107.77V17H106.362Z" fill="#3D4A39"/>
<g clip-path="url(#clip0_227_91)">
<path d="M3.375 2.8125C3.375 2.06658 3.67132 1.35121 4.19876 0.823762C4.72621 0.296316 5.44158 0 6.1875 0C6.93342 0 7.64879 0.296316 8.17624 0.823762C8.70368 1.35121 9 2.06658 9 2.8125C9 2.06658 9.29632 1.35121 9.82376 0.823762C10.3512 0.296316 11.0666 0 11.8125 0C12.5584 0 13.2738 0.296316 13.8012 0.823762C14.3287 1.35121 14.625 2.06658 14.625 2.8125V2.81925C14.625 2.898 14.625 3.123 14.5822 3.375H16.875C17.1734 3.375 17.4595 3.49353 17.6705 3.7045C17.8815 3.91548 18 4.20163 18 4.5V5.625C18 5.92337 17.8815 6.20952 17.6705 6.4205C17.4595 6.63147 17.1734 6.75 16.875 6.75H1.125C0.826631 6.75 0.540483 6.63147 0.329505 6.4205C0.118526 6.20952 0 5.92337 0 5.625V4.5C0 4.20163 0.118526 3.91548 0.329505 3.7045C0.540483 3.49353 0.826631 3.375 1.125 3.375H3.41775C3.38804 3.19127 3.37374 3.00537 3.375 2.81925V2.8125ZM4.5765 3.375H7.875V2.8125C7.875 2.59089 7.83135 2.37146 7.74655 2.16672C7.66174 1.96198 7.53744 1.77596 7.38074 1.61926C7.22404 1.46256 7.03802 1.33826 6.83328 1.25345C6.62854 1.16865 6.40911 1.125 6.1875 1.125C5.96589 1.125 5.74646 1.16865 5.54172 1.25345C5.33698 1.33826 5.15096 1.46256 4.99426 1.61926C4.83756 1.77596 4.71326 1.96198 4.62845 2.16672C4.54365 2.37146 4.5 2.59089 4.5 2.8125C4.5 2.90812 4.50225 3.12075 4.55062 3.29625C4.55738 3.32308 4.56603 3.34939 4.5765 3.375ZM10.125 3.375H13.4235C13.4338 3.34935 13.4425 3.32304 13.4494 3.29625C13.4978 3.12075 13.5 2.90812 13.5 2.8125C13.5 2.36495 13.3222 1.93572 13.0057 1.61926C12.6893 1.30279 12.2601 1.125 11.8125 1.125C11.3649 1.125 10.9357 1.30279 10.6193 1.61926C10.3028 1.93572 10.125 2.36495 10.125 2.8125V3.375ZM16.875 7.875V16.3125C16.875 16.7601 16.6972 17.1893 16.3807 17.5057C16.0643 17.8222 15.6351 18 15.1875 18H10.125V7.875H16.875ZM2.8125 18C2.36495 18 1.93572 17.8222 1.61926 17.5057C1.30279 17.1893 1.125 16.7601 1.125 16.3125V7.875H7.875V18H2.8125Z" fill="#3D4A39"/>
</g>
<defs>
<clipPath id="clip0_227_91">
<rect width="18" height="18" fill="white"/>
</clipPath>
</defs>
</svg>
